<?xml version="1.0" encoding="UTF-8"?>
<svg version="1.1" xmlns="http://www.w3.org/2000/svg" width="598" height="603">
<path d="M0 0 C197.34 0 394.68 0 598 0 C598 198.99 598 397.98 598 603 C400.66 603 203.32 603 0 603 C0 404.01 0 205.02 0 0 Z " fill="#FEFEFE" transform="translate(0,0)"/>
<path d="M0 0 C0.83576569 0.09996277 1.67153137 0.19992554 2.53262329 0.30291748 C11.80221697 1.42942375 20.93158267 2.84895538 30.07202148 4.76147461 C34.03536193 5.58830273 38.00697474 6.27000921 42 6.9375 C66.83367624 11.23317767 66.83367624 11.23317767 72.40014648 18.60620117 C74.75097028 23.32483358 73.85214182 28.67744383 72.359375 33.54614258 C70.96834829 37.10224352 69.45483848 40.58770169 67.875 44.0625 C67.29292284 45.37375892 66.71089266 46.68503869 66.12890625 47.99633789 C56.57217286 69.27549076 45.04958448 89.6550555 33.4765625 109.88671875 C31.27860038 113.72939117 29.10950191 117.58651941 26.9609375 121.45703125 C20.26887341 133.51110695 13.40570625 145.44195086 6.34228516 157.2824707 C1.77843496 164.93847488 -2.69616483 172.64024042 -7.125 180.375 C-14.02999277 192.40707508 -21.19440901 204.27026429 -28.43055725 216.10446167 C-30.9920393 220.29427033 -33.54220047 224.49080277 -36.0859375 228.69140625 C-42.98941355 240.0894707 -49.91671102 251.47096334 -56.95288086 262.7878418 C-60.25686656 268.107192 -63.51870384 273.45019686 -66.75854492 278.80883789 C-74.19580203 291.10278132 -81.88567396 303.22028396 -89.66845703 315.29785156 C-91.64972539 318.37875979 -93.6215841 321.46545523 -95.58984375 324.5546875 C-105.81926698 340.60588991 -116.20671819 356.5496599 -126.6875 372.4375 C-127.0552655 372.99516052 -127.42303101 373.55282104 -127.80194092 374.12738037 C-136.55003821 387.38715496 -145.42107867 400.5342737 -154.6875 413.4375 C-155.21972168 414.18225586 -155.75194336 414.92701172 -156.30029297 415.69433594 C-183.09110834 453.18104444 -183.09110834 453.18104444 -189.6875 454.4375 C-196.03074098 455.18235027 -200.47886143 454.40185269 -205.6875 450.4375 C-207.86811757 448.11989492 -209.67870668 445.60511371 -211.5 443 C-212.54596342 441.55272617 -213.59285105 440.10611986 -214.640625 438.66015625 C-215.15431641 437.94359863 -215.66800781 437.22704102 -216.19726562 436.48876953 C-218.31057511 433.57985303 -220.52808672 430.7644247 -222.75 427.9375 C-227.79946972 421.42576302 -232.44369377 414.65991979 -237.06054688 407.83740234 C-238.83039124 405.22672255 -240.60992938 402.62282094 -242.390625 400.01953125 C-261.2664953 372.39139265 -279.83627462 344.56184489 -297.66015625 316.2421875 C-299.6398185 313.09685839 -301.62663117 309.95627671 -303.62109375 306.8203125 C-309.65973385 297.316088 -315.57373868 287.74340124 -321.41235352 278.11499023 C-325.24024893 271.80470228 -329.1043039 265.51862283 -333 259.25 C-346.79445069 237.01798235 -360.22683647 214.57310783 -373.546875 192.0546875 C-375.44451442 188.84693403 -377.34660369 185.6418415 -379.25 182.4375 C-385.58922935 171.75488347 -391.83627454 161.02182286 -398.02783203 150.25292969 C-401.09448018 144.92120646 -404.17302757 139.59762183 -407.29296875 134.296875 C-414.84372479 121.46590643 -422.07443452 108.50123672 -429.10400391 95.37792969 C-431.19881549 91.48802671 -433.32793499 87.61741453 -435.45727539 83.74633789 C-443.29353899 69.47885685 -450.51513917 55.19803862 -456.80737305 40.17749023 C-457.16871338 39.31583252 -457.53005371 38.4541748 -457.90234375 37.56640625 C-458.22323975 36.79369385 -458.54413574 36.02098145 -458.87475586 35.22485352 C-459.55366891 33.45433491 -459.55366891 33.45433491 -460.6875 32.4375 C-461.28727385 27.62412502 -461.76067572 22.641343 -459.59375 18.19140625 C-454.60345183 12.01989389 -447.72975255 10.23940049 -440.18359375 8.75390625 C-439.12290428 8.54341644 -439.12290428 8.54341644 -438.04078674 8.32867432 C-435.73732448 7.87584877 -433.43158327 7.43663215 -431.125 7 C-429.92725952 6.77031021 -429.92725952 6.77031021 -428.70532227 6.53598022 C-414.37862247 3.79813207 -400.03962613 1.59906798 -385.55029297 -0.10644531 C-382.91506541 -0.41756939 -380.28176033 -0.73550766 -377.64892578 -1.06542969 C-288.64100287 -12.19691008 -197.73206909 -11.37805518 0 0 Z " fill="#2C68F5" transform="translate(481.6875,32.5625)"/>
<path d="M0 0 C2.20505371 2.80885202 3.97625234 5.64184451 5.64453125 8.796875 C6.14911865 9.74296631 6.65370605 10.68905762 7.17358398 11.66381836 C7.71442627 12.6822583 8.25526855 13.70069824 8.8125 14.75 C13.91110872 24.26179297 19.21785889 33.62196706 24.69433594 42.92041016 C28.91585053 50.10211893 33.01508443 57.34391714 37.0625 64.625 C42.91702819 75.13631884 48.9596827 85.51926125 55.12451172 95.85107422 C57.23702847 99.3979684 59.33977665 102.95055511 61.44140625 106.50390625 C76.37560161 131.74235234 91.60317527 156.79145749 106.99853516 181.75146484 C109.04818655 185.07821056 111.09308934 188.40783322 113.13671875 191.73828125 C120.52928201 203.78189329 127.9743561 215.78731878 135.55126953 227.71582031 C137.06817577 230.10749115 138.57971872 232.50247965 140.08984375 234.8984375 C140.60836914 235.72093994 141.12689453 236.54344238 141.66113281 237.39086914 C142.62564731 238.92110256 143.58987754 240.45151523 144.55371094 241.98217773 C152.69085437 254.8795792 161.03084179 267.63115628 169.5 280.3125 C170.02235229 281.09525299 170.54470459 281.87800598 171.08288574 282.68447876 C194.91395185 318.47059337 194.91395185 318.47059337 220.17578125 353.25 C222.0046521 355.66120715 223.79264502 358.09372383 225.54296875 360.5625 C225.93911377 361.11381592 226.33525879 361.66513184 226.7434082 362.2331543 C227.7928219 363.69780525 228.83051712 365.17083316 229.8671875 366.64453125 C232.85366714 369.94278624 235.94708014 371.65100362 240.34375 372.3984375 C241.0553125 372.39070313 241.766875 372.38296875 242.5 372.375 C243.2115625 372.38273437 243.923125 372.39046875 244.65625 372.3984375 C250.47763228 371.40880251 253.94488096 368.41076458 257.5625 363.9375 C258.19031372 363.16237061 258.19031372 363.16237061 258.83081055 362.37158203 C264.26624862 355.56169949 269.28269224 348.43138236 274.33105469 341.33349609 C275.94844834 339.07207881 277.58338948 336.8247674 279.2265625 334.58203125 C286.79468901 324.23953976 293.970008 313.67599052 301.02685547 302.97949219 C303.18488032 299.7208266 305.35819912 296.47258996 307.53515625 293.2265625 C314.75317344 282.4577087 321.93388966 271.68159885 328.73828125 260.64453125 C331.1440291 256.74686301 333.62924301 252.9029654 336.125 249.0625 C347.18594864 232.01501704 358.13359577 214.91830714 368.6484375 197.52734375 C371.83139717 192.26491158 375.06520644 187.03540214 378.3125 181.8125 C385.19237372 170.73230454 391.95364035 159.58081911 398.70988464 148.42504883 C401.22057753 144.28113339 403.74078433 140.14311997 406.265625 136.0078125 C415.68426489 120.57213384 424.91029879 105.03283623 434.01269531 89.40869141 C435.8767337 86.21143049 437.74587083 83.01722378 439.6171875 79.82421875 C452.31262833 58.14711527 464.78534826 36.35580203 476.86083984 14.32739258 C477.49070801 13.17907959 478.12057617 12.0307666 478.76953125 10.84765625 C479.32229736 9.83711182 479.87506348 8.82656738 480.44458008 7.78540039 C481.91241046 5.15685279 483.43578152 2.57212002 485 0 C489.39667709 0.8860954 493.78862961 1.79221957 498.17749023 2.71606445 C499.6669422 3.02676249 501.15749616 3.33223043 502.64916992 3.63208008 C521.54837393 7.43979768 521.54837393 7.43979768 528.5625 14.625 C531.18585332 20.78417736 530.84379099 27.51388325 528.48828125 33.75390625 C527.78557728 35.36678711 527.05908536 36.96945642 526.3125 38.5625 C525.72106201 39.88229858 525.72106201 39.88229858 525.11767578 41.22875977 C520.19933716 52.04553391 514.79774066 62.6387814 509.40527344 73.22460938 C508.273974 75.45890612 507.16097292 77.69885028 506.0703125 79.953125 C501.63827644 89.08179628 496.61755436 97.85109348 491.59375 106.6640625 C488.48370429 112.12714829 485.43402709 117.62180908 482.39697266 123.12573242 C475.71858614 135.22504348 468.83523492 147.17484797 461.75585938 159.04296875 C458.7945602 164.03007325 455.8716151 169.03964305 452.9442749 174.04672241 C432.72046973 208.62597762 412.04736373 242.91562863 391 277 C390.4332959 277.9182959 389.8665918 278.8365918 389.28271484 279.78271484 C377.12781997 299.47357242 364.88783367 319.11016068 352.43359375 338.61328125 C350.20541734 342.10323389 347.98928292 345.60028105 345.78515625 349.10546875 C336.4542342 363.91503306 326.74988981 378.46651811 317.0088501 393.00784302 C314.16983399 397.24701567 311.34170959 401.49309985 308.5234375 405.74609375 C300.69517556 417.55552221 292.73655909 429.25645739 284.54589844 440.81787109 C283.11277869 442.84080608 281.6848083 444.86727454 280.2578125 446.89453125 C274.70540797 454.75627717 268.94153593 462.42856905 263 470 C262.20207031 471.04027344 261.40414063 472.08054687 260.58203125 473.15234375 C259.81246094 474.13332031 259.04289062 475.11429688 258.25 476.125 C257.57453125 476.99382812 256.8990625 477.86265625 256.203125 478.7578125 C252.20771773 482.82406032 247.58890678 484.55197037 242.015625 485.0625 C235.76777 484.86876806 232.05918554 481.27708661 228 477 C215.9578667 463.20124073 205.4302853 448.02742428 195 433 C194.51515137 432.30165039 194.03030273 431.60330078 193.53076172 430.88378906 C173.85786108 402.47390204 154.82130467 373.57764886 136.45166016 344.31054688 C134.47552171 341.1652098 132.49153491 338.0248603 130.50708008 334.88476562 C129.50254579 333.29521582 128.49847652 331.70537204 127.49487305 330.11523438 C125.02584539 326.20329974 122.55268731 322.2941055 120.0703125 318.390625 C114.07808587 308.95633106 108.21092963 299.45429915 102.42016602 289.89501953 C98.19559876 282.93236026 93.89584995 276.02037477 89.5625 269.125 C81.86459649 256.85457553 74.4041212 244.44935821 67 232 C66.23340648 230.71174652 65.46680463 229.42349799 64.70019531 228.13525391 C59.1239183 218.76249138 53.5594007 209.38278036 48 200 C47.39414063 198.97777344 46.78828125 197.95554687 46.1640625 196.90234375 C33.11494012 174.87812077 20.08379318 152.83920999 7.45800781 130.56884766 C5.93221232 127.88056564 4.39989012 125.19606794 2.8671875 122.51171875 C-4.7616799 109.11992155 -12.14560511 95.60606645 -19.39697266 82.00634766 C-20.41552974 80.09612653 -21.43583684 78.18683672 -22.45849609 76.27880859 C-29.85463879 62.47814048 -37.08580749 48.63145955 -42.5625 33.9375 C-42.82643555 33.25929199 -43.09037109 32.58108398 -43.36230469 31.88232422 C-45.44413312 26.02808408 -45.37628322 21.02782309 -42.75 15.25 C-36.10571095 6.70734265 -25.76983577 5.87287351 -15.75 3.8125 C-14.88624756 3.63332031 -14.02249512 3.45414062 -13.13256836 3.26953125 C-8.68478192 2.38815083 -4.56051089 1.78389736 0 2 C0 1.34 0 0.68 0 0 Z " fill="#89D3F7" transform="translate(45,114)"/>
</svg>
